<?xml version="1.0" encoding="utf-8"?>
<!-- Generator: Adobe Illustrator 27.3.1, SVG Export Plug-In . SVG Version: 6.00 Build 0)  -->
<svg version="1.1" id="Capa_1" xmlns="http://www.w3.org/2000/svg" xmlns:xlink="http://www.w3.org/1999/xlink" x="0px" y="0px"
	 viewBox="0 0 800 800" style="enable-background:new 0 0 800 800;" xml:space="preserve">
<style type="text/css">
	.st0{fill:#EF0606;}
</style>
<g>
	<g>
		<path class="st0" d="M541.3,74.4c-5.9-2.4-12-3.6-18.3-3.6c-20,0-37.7,12-45.2,30.5c-10.1,24.9,2,53.4,26.9,63.5
			C610.6,207.7,679,309.2,679,423.4c0,153.9-125.2,279-279,279c-153.8,0-279-125.2-279-279c0-114.2,68.4-215.7,174.4-258.6
			c12.1-4.9,21.5-14.2,26.6-26.2c5.1-12,5.2-25.3,0.3-37.3C314.8,82.8,297,70.8,277,70.8c-6.3,0-12.4,1.2-18.3,3.6
			c-142.9,57.9-235.3,194.9-235.3,349C23.4,631.1,192.4,800,400,800c207.7,0,376.6-168.9,376.6-376.6
			C776.6,269.3,684.2,132.2,541.3,74.4z"/>
		<path class="st0" d="M400,347.2c22.4,0,40.7-18.2,40.7-40.7V40.7C440.6,18.2,422.5,0,400,0c-22.5,0-40.7,18.2-40.7,40.7v265.8
			C359.3,328.9,377.5,347.2,400,347.2z"/>
	</g>
</g>
</svg>
